<?xml version="1.0" encoding="UTF-8" standalone="no"?>
<!-- Generator: Adobe Illustrator 24.1.0, SVG Export Plug-In . SVG Version: 6.00 Build 0)  -->

<svg
   xmlns:dc="http://purl.org/dc/elements/1.1/"
   xmlns:cc="http://creativecommons.org/ns#"
   xmlns:rdf="http://www.w3.org/1999/02/22-rdf-syntax-ns#"
   xmlns:svg="http://www.w3.org/2000/svg"
   xmlns="http://www.w3.org/2000/svg"
   xmlns:sodipodi="http://sodipodi.sourceforge.net/DTD/sodipodi-0.dtd"
   xmlns:inkscape="http://www.inkscape.org/namespaces/inkscape"
   version="1.1"
   id="Layer_1"
   x="0px"
   y="0px"
   viewBox="0 0 134.74 134.74"
   style="enable-background:new 0 0 134.74 134.74;"
   xml:space="preserve"
   sodipodi:docname="logo-v1.svg"
   inkscape:version="0.92.4 (5da689c313, 2019-01-14)"><metadata
   id="metadata6270"><rdf:RDF><cc:Work
       rdf:about=""><dc:format>image/svg+xml</dc:format><dc:type
         rdf:resource="http://purl.org/dc/dcmitype/StillImage" /><dc:title></dc:title></cc:Work></rdf:RDF></metadata><defs
   id="defs6268" /><sodipodi:namedview
   pagecolor="#ffffff"
   bordercolor="#666666"
   borderopacity="1"
   objecttolerance="10"
   gridtolerance="10"
   guidetolerance="10"
   inkscape:pageopacity="0"
   inkscape:pageshadow="2"
   inkscape:window-width="1920"
   inkscape:window-height="986"
   id="namedview6266"
   showgrid="false"
   inkscape:zoom="3.2796268"
   inkscape:cx="-27.975679"
   inkscape:cy="67.370003"
   inkscape:window-x="-11"
   inkscape:window-y="-11"
   inkscape:window-maximized="1"
   inkscape:current-layer="g6263" />
<style
   type="text/css"
   id="style6151">
	.st0{fill:#020F50;}
	.st1{fill:#38A4DD;}
	.st2{fill:#20B1E7;}
	.st3{fill:#FFFFFF;}
</style>
<g
   id="g6263">
	
	<path
   class="st1"
   d="M70.35,13.33c0,0,18.31,1.07,27.91,8.74s7.45,3.07,7.45,3.07s13.95,0.76,18.92,7.8   c4.97,7.03,2.72,27.22-2.07,34.35c-4.79,7.13-13.43,24.08-13.43,24.08s-2.34,25.34-0.64,26.84c1.71,1.49,6.06,9.69,6.06,9.69   l-30.3,0.48c0,0-13.88-0.06-15.39-4.05c-1.51-3.99-3.26-8.44-3.26-8.44s-4.22,3.81-9.34,2.74S25.14,88.37,25.14,88.37   s-4.06,6.28-10.28-2.13s-9.5-28.78-5.92-37.56s12.58-15.73,26.65-18.71C35.58,29.96,48.63,13.33,70.35,13.33z"
   id="path6155" />
	<path
   class="st2"
   d="M39.68,31.52c0,0-19.47,4.28-23.68,27.5c-2.87,15.85,4.22,27.37,4.22,27.37l-5.36,0.86   c0,0-9.81-20.51-6.89-35.14s22.35-22.39,25.36-21.63C36.34,31.24,39.68,31.52,39.68,31.52z"
   id="path6157"
   style="fill:#20b1f5;fill-opacity:1" />
	<path
   class="st2"
   d="M68.42,69.13c0,0,5.31,55.44,23.52,56.79c0,0-16.67,5.51-20.53-1.08s-5.19-8.94-5.19-8.94s8.65-5.44,5.57-9.94   c-3.08-4.5-4.37-7.66-4.37-7.66l0.14-29.16H68.42z"
   id="path6159"
   style="fill:#20b1f5;fill-opacity:1" />
	<path
   class="st2"
   d="M51.08,79.09c0,0-3.06,26.54,12.1,38.4c0,0,9.68-6.93,8.61-11.54c-1.08-4.61-12.84-18.59-12.84-18.59   L51.08,79.09z"
   id="path6161"
   style="fill:#20b1f5;fill-opacity:1" />
	<path
   class="st2"
   d="M46.6,22.46c0,0,13.95,58.64,71.17,51.96c0,0,7.78-43.21-25.16-55.78S46.6,22.46,46.6,22.46z"
   id="path6163"
   style="fill:#20b1f5;fill-opacity:1" />
	<g
   id="g6167">
		<path
   class="st0"
   d="M31.29,29.23C23.41,30.16,12.9,34.4,7.56,49.35c-9.69,27.13,15.77,49.81,16.86,50.77l0.24-0.28    c-0.01-0.09-0.04-0.17-0.05-0.26c-0.09-0.39-0.07-0.77,0.05-1.16c0.22-0.53,0.32-0.79,0.58-1.14c-0.14-0.25-0.27-0.5-0.4-0.76    c-0.26-0.45-0.39-0.94-0.4-1.47l0.04-0.29c-6-6.35-20.38-24.28-13.3-44.11C20.11,25.7,44.69,34.1,45.73,34.47v0    c0.72-2.02-0.5-4.24-2.6-4.67C40.22,29.21,35.96,28.68,31.29,29.23z"
   id="path6165" />
	</g>
	<g
   id="g6171">
		<rect
   x="64.46"
   y="67.3"
   class="st0"
   width="3.86"
   height="30.69"
   id="rect6169" />
	</g>
	<g
   id="g6175">
		<path
   class="st0"
   d="M117.71,80.85l-3.2-2.17c10.27-15.16,13.49-29.89,9.07-41.48c-5.03-13.17-18.81-9.63-19.4-9.47l-1.02-3.73    c0.18-0.05,17.73-4.66,24.03,11.82C132.08,48.63,128.71,64.62,117.71,80.85z"
   id="path6173" />
	</g>
	<g
   id="g6179">
		<path
   class="st0"
   d="M36.92,39.43c0,0-15.85-0.66-20.92,19.6s8.42,41.09,8.42,41.09s8.08-7.17,9.17-14.33    c0.5-3.3,2.56-7.4,6.63-12.44C56.3,53.42,36.92,39.43,36.92,39.43z"
   id="path6177" />
	</g>
	<g
   id="g6183">
		<path
   class="st0"
   d="M117.77,74.43c0,0,10.36-14.42,5.6-31.34C119.64,29.82,110.6,31.6,110.6,31.6S125.82,47.98,117.77,74.43z"
   id="path6181" />
	</g>
	<g
   id="g6187">
		<path
   class="st0"
   d="M60.9,70.27l-0.77-0.4c0.12-0.24,3.08-5.78,12.17-4.49h0c-0.29,2.01-1.92,3.51-3.94,3.74    c-1.37,0.16-2.38,0.55-3.12,0.98C63.91,70.89,62.28,70.99,60.9,70.27z"
   id="path6185" />
	</g>
	<g
   id="g6191">
		<path
   class="st0"
   d="M57.19,121.2c-2.32,0-4.6-0.71-6.6-2.41c-8.49-7.22-23.09-24.64-23.41-25.03l3.02-2.42    c0.07,0.09,14.69,17.53,22.9,24.5c3.57,3.04,9.24,0.91,13-2.75c2.72-2.65,4.78-6.57,2.89-8.91c-5.9-7.28-13.91-19.1-16.81-23.44    c-0.61-0.92-0.37-2.16,0.54-2.78h0c0.85-0.58,2-0.44,2.67,0.35c1.95,2.3,6.25,6.79,11.5,8.55l-1.23,3.66    c-1.01-0.34-1.99-0.76-2.93-1.23c3.03,4.3,6.4,8.93,9.26,12.46c2.97,3.67,1.69,9.33-3.19,14.1    C65.68,118.9,61.36,121.2,57.19,121.2z"
   id="path6189" />
	</g>
	<g
   id="g6199">
		<g
   id="g6197">
			<ellipse
   class="st3"
   cx="101.18"
   cy="50.49"
   rx="4.75"
   ry="6.13"
   id="ellipse6193" />
			<path
   class="st0"
   d="M101.18,57.59c-3.15,0-5.72-3.18-5.72-7.1s2.57-7.1,5.72-7.1c3.15,0,5.72,3.18,5.72,7.1     S104.33,57.59,101.18,57.59z M101.18,45.33c-2.09,0-3.78,2.32-3.78,5.16s1.7,5.16,3.78,5.16c2.09,0,3.78-2.32,3.78-5.16     S103.26,45.33,101.18,45.33z"
   id="path6195" />
		</g>
	</g>
	<g
   id="g6207">
		<g
   id="g6205">
			<ellipse
   class="st3"
   cx="72.53"
   cy="50.05"
   rx="5.09"
   ry="6.57"
   id="ellipse6201" />
			<path
   class="st0"
   d="M72.53,57.66c-3.38,0-6.13-3.41-6.13-7.61s2.75-7.61,6.13-7.61s6.13,3.41,6.13,7.61S75.91,57.66,72.53,57.66     z M72.53,44.52c-2.24,0-4.05,2.48-4.05,5.53s1.82,5.53,4.05,5.53c2.24,0,4.05-2.48,4.05-5.53S74.77,44.52,72.53,44.52z"
   id="path6203" />
		</g>
	</g>
	<g
   id="g6211">
		<ellipse
   class="st0"
   cx="74.12"
   cy="50.76"
   rx="2.48"
   ry="3.06"
   id="ellipse6209" />
	</g>
	<g
   id="g6215">
		<ellipse
   class="st0"
   cx="99.7"
   cy="51.26"
   rx="2.6"
   ry="3.21"
   id="ellipse6213" />
	</g>
	<g
   id="g6219">
		<path
   class="st0"
   d="M110.45,115.78l-3.86-0.44V76.55c0-3.49-2.45-6.41-5.72-7.14c-0.91-0.2-1.6-0.96-1.6-1.9l0,0    c0-1.24,1.15-2.15,2.36-1.89c5.03,1.09,8.82,5.58,8.82,10.93V115.78z"
   id="path6217" />
	</g>
	<g
   id="g6223">
		<path
   class="st0"
   d="M110.09,93.75l-2.98-2.46c6.83-8.28,10.6-18.77,10.6-29.52c0-25.59-20.82-46.41-46.41-46.41    c-13.9,0-26.96,6.16-35.82,16.89l-2.98-2.46c9.6-11.63,23.74-18.3,38.8-18.3c27.72,0,50.28,22.55,50.28,50.28    C121.58,73.42,117.5,84.78,110.09,93.75z"
   id="path6221" />
	</g>
	<g
   id="g6227">
		<path
   class="st0"
   d="M85.36,84.52h-6.61c-1.07,0-1.93-0.87-1.93-1.93l0,0c0-1.07,0.87-1.93,1.93-1.93h6.61    c1.07,0,1.93,0.87,1.93,1.93l0,0C87.29,83.65,86.42,84.52,85.36,84.52z"
   id="path6225" />
	</g>
	<g
   id="g6231">
		<path
   class="st0"
   d="M99.29,95.24H78.75c-1.07,0-1.93-0.87-1.93-1.93l0,0c0-1.07,0.87-1.93,1.93-1.93h20.54    c1.07,0,1.93,0.87,1.93,1.93l0,0C101.23,94.37,100.36,95.24,99.29,95.24z"
   id="path6229" />
	</g>
	<g
   id="g6235">
		<path
   class="st0"
   d="M99.29,105.95H78.75c-1.07,0-1.93-0.87-1.93-1.93v0c0-1.07,0.87-1.93,1.93-1.93h20.54    c1.07,0,1.93,0.87,1.93,1.93v0C101.23,105.09,100.36,105.95,99.29,105.95z"
   id="path6233" />
	</g>
	<g
   id="g6239">
		<path
   class="st0"
   d="M99.29,116.67H78.75c-1.07,0-1.93-0.87-1.93-1.93v0c0-1.07,0.87-1.93,1.93-1.93h20.54    c1.07,0,1.93,0.87,1.93,1.93v0C101.23,115.8,100.36,116.67,99.29,116.67z"
   id="path6237" />
	</g>
	<g
   id="g6243">
		<path
   class="st0"
   d="M118.83,126.32c-0.05-0.01,0.57-0.78,0.51-0.78c-5.02-0.69-8.89-5-8.89-10.2h-3.86    c0,7.14,5.32,13.05,12.2,14.02c-0.11-0.34-0.12-0.69-0.04-1.03c0.01-0.3,0.1-0.57,0.25-0.83c0.21-0.54,0.37-1.1,0.46-1.68    c0.01-0.05-0.64,0.66-0.62,0.61C118.82,126.39,118.82,126.35,118.83,126.32z"
   id="path6241" />
	</g>
	<g
   id="g6247">
		<path
   class="st0"
   d="M62.6,116.31l-3.24,3.24l-2.46-2.46c-0.89-0.89-0.89-2.34,0-3.24l0,0c0.89-0.89,2.34-0.89,3.24,0L62.6,116.31    z"
   id="path6245" />
	</g>
	<g
   id="g6251">
		<path
   class="st0"
   d="M67.93,113.12l-3.24,3.24l-3.52-3.52c-0.89-0.89-0.89-2.34,0-3.24l0,0c0.89-0.89,2.34-0.89,3.24,0    L67.93,113.12z"
   id="path6249" />
	</g>
	<g
   id="g6255">
		<path
   class="st0"
   d="M72.63,108.63l-3.24,3.24l-3.57-3.57c-0.89-0.89-0.89-2.34,0-3.24h0c0.89-0.89,2.34-0.89,3.24,0L72.63,108.63    z"
   id="path6253" />
	</g>
	<g
   id="g6259">
		<path
   class="st0"
   d="M118.82,129.35H78.35c-7.67,0-13.89-6.22-13.89-13.89v-1.55h3.86v1.55c0,5.53,4.49,10.02,10.02,10.02h40.48    c1.07,0,1.93,0.87,1.93,1.93v0C120.76,128.49,119.89,129.35,118.82,129.35z"
   id="path6257" />
	</g>
	<path
   class="st0"
   d="M54.16,14.66c0,0,16.21-13.77,30.12-7.75c0,0-7.17,2.49-6.45,3.11c0.72,0.62,10.33,0.62,12.62,9.22L86,17.67   c0,0,2.44,7.03,0.86,11.33l-6.6-6.6v5.74c0,0-4.45-14.2-16.06-12.33l-0.43-3.44L54.16,14.66z"
   id="path6261" />
<path
   style="fill:#03a9f4;fill-opacity:1;fill-rule:nonzero;stroke-width:0.57093221"
   d="m 86.502792,123.66913 c -2.092837,-1.66317 -5.382657,-5.56889 -5.414532,-6.4282 -0.0087,-0.23551 4.34271,-0.4282 9.669879,-0.4282 9.201429,0 9.717291,-0.0589 10.316401,-1.17835 1.35697,-2.53554 0.18075,-2.81817 -11.728237,-2.81817 H 78.348356 l -2.597325,-7.85032 c -2.729038,-8.248424 -4.84809,-17.473912 -6.344358,-27.620752 -1.150601,-7.802714 -1.147713,-7.851886 0.497811,-8.477513 1.579462,-0.600511 2.85122,-2.57674 2.266765,-3.522408 -1.107928,-1.792665 -10.912039,1.327204 -11.849748,3.770833 -0.34869,0.908671 1.15397,2.022105 2.728976,2.022105 0.761626,0 0.893932,1.014014 0.893932,6.851187 0,3.768153 -0.233368,6.851187 -0.518596,6.851187 -0.643379,0 -6.261526,-4.593053 -7.6116,-6.222775 -2.601895,-3.140846 -5.002849,-0.366813 -4.997879,5.77449 0.0072,8.935906 2.16365,18.353296 5.695938,24.874966 l 1.72203,3.17939 -1.190339,1.10897 c -0.705924,0.65767 -1.076032,1.54608 -0.909456,2.18307 0.818005,3.12805 -4.500885,-0.92328 -12.187178,-9.28282 -2.991069,-3.25306 -7.055481,-7.755409 -9.032026,-10.005219 -3.534585,-4.023251 -3.580038,-4.117192 -2.76229,-5.709322 0.457285,-0.890317 1.251729,-3.267725 1.765431,-5.283127 1.043604,-4.094361 1.839752,-5.548222 7.014929,-12.81012 7.991204,-11.213397 7.702439,-21.448265 -0.862528,-30.571099 -3.002568,-3.198135 -3.583861,-3.342438 -8.082601,-2.006455 -5.165351,1.533944 -8.980464,4.480957 -12.092959,9.341297 -2.401872,3.750662 -1.975432,1.455707 0.515542,-2.774469 2.583795,-4.387805 7.476986,-9.360553 11.742875,-11.9338 3.137225,-1.89242 3.140439,-1.892986 7.330607,-1.289825 2.305603,0.331884 4.770075,0.764203 5.476604,0.960708 1.020227,0.283753 1.284597,0.124427 1.284597,-0.774177 0,-2.009376 -2.066457,-3.959426 -4.630214,-4.369387 l -2.382998,-0.381057 1.249303,-1.329823 c 0.687117,-0.731402 2.35504,-2.123902 3.706495,-3.094444 l 2.457192,-1.764621 1.582711,4.684209 c 6.723241,19.898177 21.233425,36.482854 37.758876,43.15719 5.174222,2.089774 10.662639,3.422269 15.929935,3.867519 l 4.27658,0.361503 v 20.949981 c 0,22.278338 0.19979,24.254208 2.82522,27.941288 l 1.24907,1.75415 H 99.459591 88.651507 Z m 14.521928,-18.52401 c 0.50799,-0.61209 0.51902,-1.12154 0.0436,-2.01 -0.6175,-1.15381 -0.98677,-1.18539 -12.110234,-1.03563 -9.979644,0.13436 -11.551357,0.27831 -12.07283,1.10575 -0.434833,0.68995 -0.393372,1.19967 0.150938,1.85553 1.065245,1.28354 22.92954,1.36042 23.988586,0.0844 z m -0.29596,-10.354059 c 1.06141,-1.061414 1.07052,-1.137725 0.30616,-2.565946 -0.55373,-1.034638 -1.303194,-1.104332 -11.875392,-1.104332 -11.299622,0 -12.65461,0.221825 -12.65461,2.071668 0,0.38579 0.403729,1.105165 0.89718,1.59861 1.334623,1.334623 21.992036,1.334623 23.326662,0 z M 87.004236,83.555931 c 1.166803,-1.856294 -0.235326,-2.976954 -3.968903,-3.172168 -4.268924,-0.2232 -5.791645,0.173866 -6.254066,1.630828 -0.697514,2.197673 0.65511,2.885749 5.318753,2.705625 3.332269,-0.128699 4.41483,-0.385704 4.904216,-1.164285 z"
   id="path6272"
   inkscape:connector-curvature="0" /></g>
</svg>