<svg xmlns:svg="http://www.w3.org/2000/svg" xmlns="http://www.w3.org/2000/svg" height="110.97054" width="116.93835" xml:space="preserve" viewBox="0 0 116.93834 110.97054" y="0px" x="0px" id="Layer_1" version="1.1"><g transform="translate(-8.9266005,-12.025929)" id="g7459"><g id="g7457"><path style="fill:#03a9f4;fill-opacity:1;fill-rule:nonzero;stroke-width:0.27563247" d="m 72.208649,114.87581 c -2.147602,-0.31313 -4.243955,-1.45876 -5.815123,-3.17787 -1.321399,-1.44581 -2.516665,-3.86981 -2.516665,-5.10377 0,-0.30155 0.662854,-1.35188 1.473007,-2.33407 3.508713,-4.25378 4.580841,-8.500383 2.94795,-11.676576 -0.280955,-0.546499 -1.452624,-2.217766 -2.60371,-3.713924 l -2.09288,-2.720289 V 72.262743 58.376175 h 1.76971 c 1.985151,0 1.833361,0.192711 2.253108,-2.860511 l 0.184842,-1.34453 -3.275267,0.130137 c -2.758331,0.1096 -3.524093,0.2427 -4.851796,0.843312 -1.59958,0.723598 -4.349571,3.027723 -4.349571,3.644357 0,0.185528 0.750015,0.73708 1.666697,1.225669 1.339304,0.713841 1.745379,0.823041 2.067244,0.555917 0.348575,-0.28929 0.400546,0.605639 0.400546,6.897259 0,6.355206 -0.05067,7.21024 -0.418934,7.068926 -1.719514,-0.659839 -6.586853,-4.813444 -8.401305,-7.169358 -0.530593,-0.688929 -1.087674,-1.257295 -1.23796,-1.263033 -0.412434,-0.01575 -3.17216,1.946458 -3.17216,2.255453 0,0.61444 10.705791,15.97019 15.520281,22.261364 1.448479,1.892754 2.590724,3.484245 2.538321,3.536646 -0.0524,0.0524 -0.361244,-0.04706 -0.686317,-0.221035 -1.364171,-0.730085 -3.315029,0.599142 -3.315029,2.258711 0,0.604377 0.380202,1.208789 1.49669,2.379309 l 1.49669,1.569122 -0.510998,0.67745 -0.510995,0.67744 -1.654313,-1.577949 c -1.960615,-1.870112 -3.042042,-2.085397 -4.276159,-0.85128 -1.187668,1.187669 -1.006831,2.317689 0.651496,4.071129 0.757989,0.80146 1.378162,1.52497 1.378162,1.6078 0,0.0828 -0.20187,0.22807 -0.4486,0.32275 -0.299602,0.11497 -0.890742,-0.24143 -1.779803,-1.07304 -1.069633,-1.00052 -1.52664,-1.24519 -2.325845,-1.24519 -1.309519,0 -1.911161,0.35115 -2.328684,1.35914 -0.252793,0.6103 -0.266547,1.04929 -0.05214,1.66433 0.260611,0.74759 0.233634,0.83539 -0.256691,0.83539 -1.352314,0 -3.103969,-1.40122 -8.394814,-6.71534 C 37.885732,94.983092 32.442848,89.051743 27.649799,83.411049 l -1.562897,-1.839293 0.980515,-1.947043 c 0.539284,-1.070874 1.221992,-2.982669 1.51713,-4.248436 1.07009,-4.58932 2.415321,-7.124819 6.957058,-13.112695 2.701336,-3.561472 4.600926,-7.138048 5.504926,-10.36477 0.791961,-2.82681 0.851619,-7.633195 0.128296,-10.336218 -1.093139,-4.085003 -4.299062,-9.133648 -7.835702,-12.339568 l -1.297816,-1.176451 -1.786986,0.171653 c -7.098505,0.681862 -13.437074,5.408132 -16.972457,12.655284 -2.59914,5.327957 -3.7016618,10.363817 -3.7034953,16.916023 -0.00127,4.494067 0.4990953,8.369614 1.6552153,12.8207 0.437646,1.684947 0.87368,3.373629 0.968964,3.752624 0.26346,1.047918 -1.596003,-1.908791 -3.3302902,-5.295452 C 7.2037754,65.809244 5.4652982,60.883554 4.7097578,57.273645 4.0397459,54.072383 4.0360715,47.526316 4.7025225,44.383582 6.2202928,37.226344 9.9068264,30.137497 14.222469,26.07765 c 4.131468,-3.886589 8.774372,-5.330596 13.533069,-4.20897 l 1.778143,0.419108 1.086546,-1.318988 c 1.973295,-2.395437 6.177953,-6.304276 8.710762,-8.097918 5.828268,-4.1273603 11.842128,-6.6844324 19.171038,-8.1514595 3.851396,-0.7709336 13.043199,-0.6922919 16.951398,0.14503 17.118783,3.6676569 30.126295,15.1529085 35.557055,31.3958405 2.90512,8.688983 3.08824,18.763499 0.49952,27.482548 -1.01665,3.424185 -2.38224,6.753685 -3.89292,9.491504 l -1.155,2.093227 -0.15242,-6.063914 c -0.1358,-5.402714 -0.21888,-6.229214 -0.76195,-7.579893 -1.62338,-4.037559 -5.05393,-6.714184 -9.352941,-7.297469 l -1.447071,-0.196339 v 2.062434 2.062434 l 1.033622,0.190271 c 1.761796,0.324321 3.191386,1.112324 4.39167,2.420732 2.07942,2.266746 2.01679,1.490102 2.01679,25.005712 0,22.66235 -0.023,22.28683 1.56589,25.53184 0.40406,0.82519 1.15695,1.99372 1.6731,2.59672 l 0.93845,1.09637 -16.352705,-0.0344 c -8.993984,-0.0189 -17.006626,-0.12973 -17.805866,-0.24627 z m 24.744109,-10.60683 v -2.06724 H 84.549297 72.145835 v 2.06724 2.06725 h 12.403462 12.403461 z m 0,-10.749664 V 91.452072 H 84.549297 72.145835 v 2.067244 2.067243 h 12.403462 12.403461 z m 0,-10.749667 V 80.702406 H 84.549297 72.145835 v 2.067243 2.067244 H 84.549297 96.952758 Z M 82.895502,71.74435 v -2.067244 h -5.374834 -5.374833 v 2.067244 2.067244 h 5.374833 5.374834 z M 68.143547,41.759166 c 1.640854,-0.92933 2.392429,-2.41438 2.279803,-4.504697 -0.16162,-2.999595 -2.113219,-4.679732 -5.17831,-4.458025 -1.882738,0.136185 -3.232133,1.013245 -3.978356,2.585791 -0.661702,1.394433 -0.48127,3.833012 0.3723,5.031743 1.380687,1.938997 4.36603,2.556386 6.504563,1.345188 z M 99.49939,41.498289 c 1.23572,-0.942534 1.91863,-2.405043 1.90564,-4.081139 -0.0241,-3.116298 -2.330472,-4.985646 -5.684663,-4.60758 -4.387041,0.494482 -5.4916,6.549907 -1.631461,8.944012 1.49766,0.928868 4.013612,0.81015 5.410484,-0.255293 z" id="path923"  transform="translate(4.7216423,7.84)"/><path style="fill:#03a9f4;fill-opacity:1;fill-rule:nonzero;stroke-width:0.27563247" d="m 120.69076,41.27973 c -0.0889,-4.75975 -1.27128,-10.184687 -2.98621,-13.701634 -1.96919,-4.038343 -5.52799,-6.950472 -9.02837,-7.387815 -1.45197,-0.181412 -1.54391,-0.245969 -3.16751,-2.224172 l -1.67215,-2.037336 h 1.11768 c 0.61472,0 2.07371,0.195682 3.2422,0.434849 4.81984,0.986524 8.18441,3.637108 10.35393,8.156759 1.78652,3.721752 2.40617,6.443169 2.56245,11.253931 0.0714,2.198169 0.0132,4.740878 -0.12929,5.650465 l -0.25912,1.653795 z" id="path925"  transform="translate(4.7216423,7.84)"/></g></g></svg>
